<?xml version="1.0" encoding="UTF-8" standalone="no"?>
<!DOCTYPE svg PUBLIC "-//W3C//DTD SVG 1.1//EN" "http://www.w3.org/Graphics/SVG/1.1/DTD/svg11.dtd">
<svg width="100%" height="100%" viewBox="0 0 8972 6043" version="1.1" xmlns="http://www.w3.org/2000/svg" xmlns:xlink="http://www.w3.org/1999/xlink" xml:space="preserve" xmlns:serif="http://www.serif.com/" style="fill-rule:evenodd;clip-rule:evenodd;stroke-linejoin:round;stroke-miterlimit:2;">
    <g id="Layer-1" serif:id="Layer 1" transform="matrix(4.16667,0,0,4.16667,0,0)">
        <g transform="matrix(1,0,0,1,2076.65,696.71)">
            <path d="M0,-37.369C0.264,-38.331 0.645,-39.065 0.635,-39.795C0.587,-43.468 6.869,-58.472 6.802,-62.145C6.167,-96.912 -14.932,-117.18 -25.189,-150.207C-26.376,-154.031 -28.001,-187.686 -29.317,-191.486C-45.802,-239.074 -65.976,-243.279 -105.683,-275.075C-164.309,-322.02 -204.666,-307.401 -277.305,-297.152C-310.578,-292.457 -347.957,-289.076 -370.182,-268.257C-390.689,-249.047 -392.373,-205.988 -411.461,-181.572C-430.868,-156.746 -484.196,-185.968 -497.055,-159.619C-512.791,-127.374 -519.37,-99.342 -522.914,-61.347C-523.459,-55.492 -526.628,-48.88 -527.041,-42.772C-495.331,-42.772 -466.848,-63.927 -435.196,-63.927C-369.4,-63.927 -314.036,-117.589 -248.409,-117.589C-218.927,-117.589 -187.914,-46.071 -157.252,-41.912C-129.858,-38.196 -95.08,-50.175 -67.127,-46.383C-42.932,-43.101 -24.361,-38.569 0,-37.369M-1535.56,-76.239C-1537.92,-74.223 -1539.06,-73.172 -1540.28,-72.213C-1548.59,-65.687 -1551.12,-37.702 -1560.42,-33.25C-1573.36,-27.053 -1590.45,4.737 -1604.42,8.311C-1635.43,16.244 -1686.77,13.352 -1719.15,2.843C-1763.17,-6.53 -1791.41,-21.353 -1836.5,-17.681C-1858.21,-15.913 -1867.26,5.92 -1887.9,13.533C-1929.44,28.857 -1895.23,77.452 -1909.88,119.764C-1921.23,152.543 -1999.76,147.641 -1993.91,181.729C-1989.33,208.4 -1964.26,228.385 -1944.55,247.727C-1920.04,271.78 -1907.73,244.337 -1874.8,251.856C-1831.42,261.759 -1798.64,260.452 -1755.09,251.856C-1703.29,241.632 -1662.56,250.874 -1625.33,213.328C-1577.12,164.714 -1585.45,127.435 -1583.78,59.91C-1582.79,20.023 -1534.97,-28.671 -1535,-68.581C-1535,-70.595 -1535.28,-72.608 -1535.56,-76.239M-1812.78,328.811C-1822.77,327.947 -1832.79,327.254 -1842.76,326.191C-1883.88,321.808 -1923.13,296.849 -1957.65,273.087C-1991.48,249.804 -2011.18,231.643 -2018.29,191.402C-2024.7,155.077 -2037.53,113.196 -2027.82,77.7C-2012.88,23.056 -1963.02,-7.065 -1910.49,-26.766C-1886.98,-35.585 -1862.44,-40.324 -1837.67,-42.732C-1799.76,-46.416 -1761.7,-48.449 -1723.71,-51.297C-1687.1,-54.042 -1659.49,-40.951 -1629.22,-62.145C-1615.46,-71.777 -1603.52,-82.42 -1594.82,-85.537C-1564.16,-96.518 -1534.6,-113.565 -1531.52,-146.079C-1528.47,-178.31 -1563.16,-172.633 -1571.42,-203.869C-1582.1,-244.2 -1580.86,-299.372 -1617.92,-317.458C-1642.48,-329.449 -1672.39,-278.539 -1699.36,-280.641C-1725.09,-282.647 -1747.1,-338.448 -1772.74,-335.313C-1819.49,-329.595 -1861.4,-326.626 -1896.15,-293.307C-1924.45,-266.175 -1879.18,-215.472 -1887.18,-177.444C-1889.44,-166.695 -1891.31,-140.981 -1899.56,-129.973C-1907.17,-119.824 -1932.17,-116.903 -1945.93,-115.527C-1966.83,-113.437 -1984.21,-128.191 -1993.85,-148.831C-1992.7,-172.931 -1975.3,-190.498 -1967.84,-212.754C-1941.81,-290.435 -1899.52,-340.102 -1821.85,-359.353C-1781.85,-369.267 -1726.52,-384.226 -1685.63,-379.992C-1656.83,-377.01 -1629.75,-352.407 -1603.7,-339.096C-1553.89,-313.638 -1524.69,-272.491 -1514.71,-217.976C-1511.35,-199.63 -1510.07,-180.671 -1510.02,-161.987C-1509.64,-25.958 -1502.4,92.435 -1502.87,228.463C-1502.97,259.138 -1503.22,264.349 -1478.1,266.99C-1468.17,268.035 -1449.78,290.383 -1439.73,290.311C-1435.53,290.281 -1433.2,288.662 -1433.84,284.011C-1434.1,282.11 -1432.69,253.793 -1432.69,251.855C-1432.69,183.044 -1451.21,125.552 -1450.65,59.91C-1450.46,37.362 -1439.59,11.475 -1439.38,-10.952C-1439.11,-38.933 -1427.45,-62.74 -1427.19,-90.759C-1427,-111.336 -1445.24,-142.97 -1445.08,-163.685C-1444.61,-222.805 -1462.01,-269.4 -1462.01,-331.207C-1462.01,-334.092 -1452.85,-360.876 -1450.65,-363.198C-1443.43,-376.614 -1424.86,-377.646 -1408.34,-362.166C-1407.01,-360.919 -1402.46,-346.782 -1402.15,-345.655C-1401.66,-343.84 -1399.57,-329.53 -1400.09,-327.079C-1400.08,-278.248 -1409.21,-241.188 -1409.18,-192.357C-1409.17,-189.568 -1408.82,-186.779 -1408.63,-183.99C-1408.07,-183.877 -1407.51,-183.765 -1406.95,-183.653C-1406.16,-185.579 -1405.16,-187.446 -1404.63,-189.44C-1386.75,-256.711 -1358.28,-316.579 -1296.47,-349.44C-1269.59,-363.735 -1228.33,-387.128 -1197.82,-387.966C-1165.58,-388.851 -1126.86,-363.87 -1096.96,-350.816C-1043.22,-327.354 -1020,-282.659 -1001.87,-227.27C-1000.83,-224.1 -999.306,-217.829 -998.424,-214.612C-997.848,-212.515 -997.053,-210.481 -996.348,-208.421C-995.822,-208.385 -995.296,-208.349 -994.77,-208.313C-993.903,-210.228 -992.854,-212.082 -992.198,-214.066C-981.012,-247.909 -986.703,-303.607 -965.629,-326.047C-935.3,-358.343 -872.979,-351.264 -822.812,-359.858C-780.058,-367.182 -736.172,-375.576 -694.938,-360.729C-637.372,-340.001 -579.068,-311.27 -563.16,-252.778C-555.098,-223.132 -584.051,-175.337 -583.485,-144.703C-582.909,-113.521 -574.543,-75.696 -574.384,-44.507C-574.372,-42.207 -574.383,-39.908 -574.383,-37.118L-552.977,-37.118C-552.165,-47.025 -554.541,-59.087 -553.558,-68.681C-544.983,-152.341 -528.977,-228.501 -469.251,-288.896C-426.774,-331.85 -367.849,-367.599 -307.949,-375.176C-253.811,-382.024 -168.363,-384.224 -118.381,-361.134C-57.05,-332.801 -21.802,-280.038 6.187,-219.012C22.19,-184.12 17.194,-130.864 21.838,-92.834C23.712,-77.488 24.558,-62.016 25.904,-46.604C26.07,-44.701 26.44,-42.817 26.716,-40.924C26.716,-33.947 32.115,-31.248 35.383,-24.024C37.962,-17.832 37.833,-4.46 35.253,-0.461C28.417,7.279 9.852,4.699 7.003,4.699C-20.426,2.977 -28.293,-2.647 -55.116,-1.603C-75.845,-0.796 -103.335,1.142 -123.914,2.525C-161.681,5.062 -202.01,4.183 -240.154,4.183C-311.704,4.183 -389.617,-13.182 -454.287,-5.621C-475.705,-3.117 -498.647,-11.929 -520.21,-11.928C-527.831,-11.928 -528.344,-11.868 -527.722,-4.453C-525.64,20.394 -493.457,37.326 -489.891,61.973C-487.166,80.803 -507.719,103.761 -502.274,121.828C-496.829,139.895 -500.069,167.12 -491.296,184.152C-460.699,243.546 -424.831,261.88 -359.862,278.687C-300.152,294.135 -269.978,223.698 -211.258,204.385C-183.286,195.185 -129.494,246.46 -108.061,229.153C-85.437,210.883 -64.758,186.936 -50.271,158.979C-35.634,130.731 -19.681,124.708 -14.181,93.51C-14.475,92.141 -10.369,83.811 -8.505,81.471C-3.61,75.323 10.414,81.127 18.081,85.608C21.25,93.51 16.811,102.54 15.574,109.334C8.244,149.581 7.04,202.112 -17.248,235.345C-65.174,300.92 -121.448,339.801 -200.939,348.861C-210.329,349.932 -248.194,341.552 -258.729,340.606C-270.64,339.617 -283.018,335.683 -293.816,338.542C-303.255,339.518 -308.403,351.482 -339.223,348.861C-467.389,328.394 -475.499,277.076 -517.439,194.471C-535.814,158.279 -540.331,114.309 -545.728,74.259C-549.354,47.356 -550.707,20.139 -552.806,-6.958C-553.023,-9.764 -555.372,-11.946 -558.186,-12.009C-574.385,-12.374 -574.383,-12.483 -574.383,3.835C-574.383,104.785 -574.439,205.734 -574.239,306.683C-574.228,312.598 -574.197,318.996 -579.873,320.372C-587.097,319.856 -595.353,318.308 -598.229,312.417C-601.13,309.846 -597.93,300.82 -597.933,295.261C-597.948,261.069 -591.736,225.223 -591.741,191.032C-591.746,153.422 -647.782,122.286 -647.782,84.677C-647.782,56.498 -599.544,24.597 -599.545,-3.582C-599.545,-11.916 -599.556,-11.928 -607.707,-11.929C-641.015,-11.934 -673.296,2.119 -706.604,2.119C-708.912,2.119 -725.18,9.343 -733.436,-3.041C-742.723,-24.712 -721.769,-25.854 -719.189,-33.852C-719.146,-34.74 -713.23,-39.477 -711.707,-39.528C-704.163,-39.778 -691.139,-45.977 -683.586,-45.978C-656.281,-45.981 -633.67,-36.732 -606.367,-36.534C-601.185,-36.496 -599.348,-37.905 -599.431,-43.378C-599.982,-79.981 -609.61,-113.641 -611.004,-150.207C-612.162,-180.574 -637.454,-207.681 -648.814,-236.266C-666.877,-281.72 -672.692,-327.666 -719.705,-340.089C-764.075,-351.814 -772.042,-301.674 -815.993,-286.833C-839.729,-269.289 -860.368,-262.065 -870.688,-232.138C-880.486,-203.723 -958.484,-223.585 -971.172,-193.559C-984.726,-161.484 -967.318,-147.753 -975.006,-109.204C-974.994,-83.068 -999.031,-45.626 -999.025,-19.49C-999.012,41.052 -959.433,98.436 -959.437,158.979C-959.44,210.646 -977.698,254.326 -991.551,306.129C-991.552,314.022 -991.558,314.156 -999.376,314.001C-1004.91,313.892 -1012.18,315.318 -1015.43,312.419C-1018.24,309.925 -1020.01,304.068 -1020.01,298.7C-1020.02,251.941 -1035.82,189.227 -1035.8,142.467C-1035.79,107.151 -1010.03,92.88 -1010.03,57.563C-1010.04,23.164 -1059.49,1.431 -1059.54,-32.968C-1059.57,-53.145 -1065.6,-61.645 -1067.79,-80.438C-1067.95,-81.773 -1071.92,-140.106 -1069.59,-152.66C-1063.05,-187.747 -1025.76,-189.447 -1029.42,-222.112C-1040.8,-263.021 -1068.37,-280.228 -1106.59,-301.281C-1125.89,-311.913 -1160.6,-344.315 -1182.27,-346.688C-1208.74,-349.588 -1212.05,-299.877 -1238.07,-293.024C-1285.26,-280.593 -1328.83,-297.647 -1357.02,-258.627C-1383.55,-221.895 -1394.46,-174.389 -1402.84,-130.171C-1407.72,-104.404 -1390.8,-78.741 -1390.8,-52.575C-1390.8,-19.501 -1339.85,13.291 -1340.23,45.462C-1340.67,82.344 -1423.98,129.317 -1399.82,156.911C-1266.96,308.614 -1397.35,253.081 -1401.05,297.949C-1401.05,307.277 -1409.21,321.404 -1418.25,321.341C-1437.41,321.206 -1458.95,325.478 -1478.1,324.781C-1492.27,324.265 -1503.06,308.111 -1514.84,300.192C-1529.21,290.533 -1534.18,275.619 -1534.59,259.5C-1535.34,229.874 -1534.9,200.217 -1535.01,170.573C-1535.02,168.273 -1535.5,165.975 -1535.76,163.677C-1536.28,163.598 -1536.79,163.52 -1537.31,163.441C-1538.05,164.625 -1539.05,165.719 -1539.5,167.005C-1559.31,222.668 -1594.58,270.91 -1645.31,299.23C-1687.41,322.739 -1735.76,325.921 -1783.86,327.963C-1785.76,328.043 -1787.64,328.519 -1789.53,328.811L-1812.78,328.811Z" style="fill:rgb(29,29,27);fill-rule:nonzero;"/>
        </g>
        <g transform="matrix(1,0,0,1,932.158,777.646)">
            <path d="M0,-72.928C-0.124,-73.479 0.27,-74.072 0.814,-74.225C16.751,-78.724 38.837,-58.579 68.442,-55.425C78.331,-54.372 85.333,-53.972 87.533,-53.791C95.402,-53.147 101.852,-48.245 104.819,-41.924C110.495,-30.443 105.321,-12.673 97.152,-2.365C95.815,-0.678 93.994,0.492 91.945,1.154C77.571,5.796 62.518,0.07 52.446,-11.352C51.254,-12.704 49.549,-15.329 48.793,-16.965C40.234,-35.474 37.486,-41.731 15.811,-58.005C15.454,-58.273 9.103,-62.993 6.867,-65.057C3.855,-67.838 0.671,-69.946 0,-72.928" style="fill:rgb(29,29,27);fill-rule:nonzero;"/>
        </g>
        <g transform="matrix(1,0,0,1,1117.22,786.59)">
            <path d="M0,-72.928C-0.124,-73.479 0.27,-74.072 0.813,-74.225C16.75,-78.724 38.837,-58.579 68.442,-55.425C78.331,-54.372 85.332,-53.972 87.533,-53.791C95.402,-53.146 101.852,-48.245 104.819,-41.924C110.495,-30.443 105.32,-12.673 97.152,-2.365C95.815,-0.678 93.994,0.492 91.945,1.154C77.571,5.796 62.518,0.07 52.446,-11.352C51.254,-12.704 49.549,-15.329 48.792,-16.965C40.234,-35.474 37.486,-41.731 15.811,-58.005C15.454,-58.273 9.103,-62.993 6.867,-65.057C3.854,-67.838 0.671,-69.946 0,-72.928" style="fill:rgb(29,29,27);fill-rule:nonzero;"/>
        </g>
        <g transform="matrix(1,0,0,1,1127.54,942.761)">
            <path d="M0,-72.928C-0.124,-73.479 0.27,-74.072 0.813,-74.225C16.75,-78.724 38.837,-58.579 68.442,-55.425C78.331,-54.372 85.332,-53.972 87.533,-53.791C95.402,-53.146 101.852,-48.245 104.819,-41.924C110.495,-30.443 105.32,-12.673 97.152,-2.365C95.815,-0.678 93.994,0.492 91.945,1.154C77.571,5.796 62.518,0.07 52.446,-11.352C51.254,-12.704 49.549,-15.329 48.792,-16.965C40.234,-35.474 37.486,-41.731 15.811,-58.005C15.454,-58.273 9.103,-62.993 6.867,-65.057C3.854,-67.838 0.671,-69.946 0,-72.928" style="fill:rgb(29,29,27);fill-rule:nonzero;"/>
        </g>
        <g transform="matrix(1,0,0,1,922.526,933.129)">
            <path d="M0,-72.928C-0.124,-73.479 0.27,-74.072 0.814,-74.225C16.751,-78.724 38.837,-58.579 68.442,-55.425C78.331,-54.372 85.332,-53.972 87.533,-53.791C95.402,-53.146 101.852,-48.245 104.819,-41.924C110.495,-30.443 105.321,-12.673 97.152,-2.365C95.815,-0.678 93.994,0.492 91.945,1.154C77.571,5.796 62.518,0.07 52.446,-11.352C51.254,-12.704 49.549,-15.329 48.792,-16.965C40.234,-35.474 37.486,-41.731 15.811,-58.005C15.454,-58.273 9.103,-62.993 6.867,-65.057C3.855,-67.838 0.671,-69.946 0,-72.928" style="fill:rgb(29,29,27);fill-rule:nonzero;"/>
        </g>
    </g>
</svg>
